<svg width="85" height="16" viewBox="0 0 85 16" fill="none" xmlns="http://www.w3.org/2000/svg">
<circle cx="8" cy="8" r="8" fill="white"/>
<g clip-path="url(#clip0_1_8)">
<path d="M7.53905 5.45156C7.76249 6.12187 7.53437 6.79843 7.02968 6.96406C6.52499 7.12968 5.93437 6.72031 5.71093 6.05C5.48749 5.37968 5.71562 4.70312 6.2203 4.5375C6.72499 4.37187 7.31562 4.78125 7.53905 5.45156ZM5.56874 7.10312C5.86405 7.60937 5.79218 8.19843 5.40937 8.41718C5.02655 8.63593 4.47655 8.40312 4.1828 7.89687C3.88905 7.39062 3.9578 6.80156 4.34062 6.58281C4.72343 6.36406 5.27343 6.59687 5.56718 7.10312H5.56874ZM5.08124 10.2687C5.89999 8.06093 7.35468 7.5 7.99999 7.5C8.6453 7.5 10.1 8.06093 10.9187 10.2687C10.975 10.4203 11 10.5828 11 10.7453V10.7703C11 11.1734 10.6734 11.5 10.2703 11.5C10.0906 11.5 9.91249 11.4781 9.73905 11.4344L8.36405 11.0906C8.12499 11.0312 7.87499 11.0312 7.63593 11.0906L6.26093 11.4344C6.08749 11.4781 5.90937 11.5 5.72968 11.5C5.32655 11.5 4.99999 11.1734 4.99999 10.7703V10.7453C4.99999 10.5828 5.02499 10.4203 5.08124 10.2687ZM10.5906 8.41718C10.2078 8.19843 10.1359 7.60937 10.4312 7.10312C10.7266 6.59687 11.275 6.36406 11.6578 6.58281C12.0406 6.80156 12.1125 7.39062 11.8172 7.89687C11.5219 8.40312 10.9734 8.63593 10.5906 8.41718ZM8.8453 6.96406C8.34062 6.79843 8.11249 6.12187 8.33593 5.45156C8.55937 4.78125 9.14999 4.37187 9.65468 4.5375C10.1594 4.70312 10.3875 5.37968 10.1641 6.05C9.94062 6.72031 9.34999 7.12968 8.8453 6.96406Z" fill="black"/>
</g>
<path d="M22.1387 11.9043C21.8197 11.9043 21.5332 11.8197 21.2793 11.6504C21.0254 11.4876 20.8105 11.263 20.6348 10.9766C20.459 10.6901 20.3288 10.3581 20.2441 9.98047C20.166 9.60286 20.1367 9.20247 20.1562 8.7793C20.1823 8.33008 20.2507 7.86784 20.3613 7.39258C20.472 6.91081 20.6217 6.44206 20.8105 5.98633C20.9993 5.5306 21.2174 5.09766 21.4648 4.6875C21.7188 4.27734 21.9954 3.91927 22.2949 3.61328C22.6009 3.30729 22.9264 3.06641 23.2715 2.89062C23.6165 2.70833 23.9779 2.61719 24.3555 2.61719C24.6029 2.61719 24.8112 2.67904 24.9805 2.80273C25.1497 2.92643 25.2799 3.08919 25.3711 3.29102C25.4688 3.48633 25.5306 3.70768 25.5566 3.95508C25.5827 4.20247 25.5794 4.44987 25.5469 4.69727C25.5208 4.93815 25.4655 5.17253 25.3809 5.40039C25.3027 5.62174 25.2051 5.80404 25.0879 5.94727C24.9382 6.13607 24.8014 6.23698 24.6777 6.25C24.5605 6.25651 24.4466 6.2207 24.3359 6.14258C24.2904 6.10352 24.2448 6.05794 24.1992 6.00586C24.1536 5.96029 24.1048 5.90495 24.0527 5.83984C24.0007 5.76823 23.9453 5.68034 23.8867 5.57617C24.0104 5.5306 24.1243 5.45573 24.2285 5.35156C24.3327 5.24089 24.4206 5.11719 24.4922 4.98047C24.5703 4.84375 24.6289 4.70052 24.668 4.55078C24.7135 4.39453 24.7396 4.24154 24.7461 4.0918C24.7526 3.97461 24.7493 3.86068 24.7363 3.75C24.7233 3.63281 24.6973 3.5319 24.6582 3.44727C24.6191 3.35612 24.5638 3.28451 24.4922 3.23242C24.4271 3.17383 24.3424 3.14453 24.2383 3.14453C23.9779 3.14453 23.724 3.24544 23.4766 3.44727C23.2292 3.64258 22.9948 3.90625 22.7734 4.23828C22.5586 4.5638 22.3568 4.93815 22.168 5.36133C21.9857 5.78451 21.8262 6.2207 21.6895 6.66992C21.5527 7.11914 21.4421 7.56185 21.3574 7.99805C21.2728 8.43424 21.2207 8.83138 21.2012 9.18945C21.1751 9.63867 21.1914 10.0033 21.25 10.2832C21.3086 10.5632 21.3867 10.7812 21.4844 10.9375C21.5885 11.1003 21.6992 11.2077 21.8164 11.2598C21.9336 11.3184 22.041 11.3477 22.1387 11.3477C22.321 11.3477 22.526 11.263 22.7539 11.0938C22.9818 10.9245 23.1999 10.6934 23.4082 10.4004C23.6165 10.1139 23.8021 9.7819 23.9648 9.4043C24.1341 9.02669 24.2546 8.62956 24.3262 8.21289C24.1634 8.21289 23.9974 8.21615 23.8281 8.22266C23.6654 8.22266 23.5091 8.22591 23.3594 8.23242C23.2096 8.23893 23.0762 8.2487 22.959 8.26172C22.8418 8.26823 22.7507 8.27799 22.6855 8.29102C22.64 8.27148 22.6074 8.2487 22.5879 8.22266C22.5749 8.19661 22.5618 8.16732 22.5488 8.13477C22.5358 8.10872 22.5293 8.07617 22.5293 8.03711C22.5293 7.99805 22.5358 7.96224 22.5488 7.92969C22.5618 7.89714 22.5781 7.86458 22.5977 7.83203C22.6172 7.79297 22.6432 7.75391 22.6758 7.71484C22.8841 7.67578 23.0892 7.64323 23.291 7.61719C23.4928 7.59115 23.7012 7.57161 23.916 7.55859C24.1374 7.53906 24.3717 7.52604 24.6191 7.51953C24.873 7.50651 25.1562 7.49674 25.4688 7.49023C25.599 7.48372 25.6771 7.5 25.7031 7.53906C25.7357 7.57812 25.7259 7.67578 25.6738 7.83203C25.6348 7.95573 25.5827 8.05664 25.5176 8.13477C25.459 8.21289 25.3581 8.24544 25.2148 8.23242C25.1693 8.23242 25.1335 8.22917 25.1074 8.22266C25.0488 8.60677 24.9251 9.01367 24.7363 9.44336C24.5475 9.87305 24.3164 10.2702 24.043 10.6348C23.7695 10.9993 23.4668 11.3021 23.1348 11.543C22.8092 11.7839 22.4772 11.9043 22.1387 11.9043ZM25.752 9.95117C25.7064 10.0228 25.6576 10.0684 25.6055 10.0879C25.5469 10.1139 25.498 10.1172 25.459 10.0977C25.4134 10.0846 25.3841 10.0521 25.3711 10C25.3581 9.94792 25.3711 9.88281 25.4102 9.80469C25.4297 9.76562 25.4753 9.67773 25.5469 9.54102C25.612 9.4043 25.6934 9.24154 25.791 9.05273C25.8822 8.85742 25.9831 8.64909 26.0938 8.42773C26.2044 8.19987 26.3086 7.98503 26.4062 7.7832C26.5104 7.58138 26.6048 7.40234 26.6895 7.24609C26.7741 7.08333 26.8359 6.96615 26.875 6.89453C26.8034 6.82943 26.7546 6.78385 26.7285 6.75781C26.7025 6.72526 26.6829 6.66016 26.6699 6.5625C26.6569 6.47786 26.6764 6.36719 26.7285 6.23047C26.7806 6.09375 26.849 5.96354 26.9336 5.83984C27.0182 5.70964 27.1126 5.59896 27.2168 5.50781C27.321 5.41667 27.4219 5.37109 27.5195 5.37109C27.7018 5.37109 27.8288 5.42969 27.9004 5.54688C27.9785 5.66406 28.0241 5.78451 28.0371 5.9082C28.0501 5.99284 28.0436 6.10026 28.0176 6.23047C27.9915 6.36068 27.9427 6.47786 27.8711 6.58203C27.8906 6.59505 27.9167 6.61133 27.9492 6.63086C27.9818 6.64388 28.0339 6.65039 28.1055 6.65039C28.2096 6.65039 28.2812 6.64388 28.3203 6.63086C28.3659 6.61784 28.4342 6.61133 28.5254 6.61133C28.6361 6.61133 28.7272 6.64062 28.7988 6.69922C28.8704 6.7513 28.929 6.81966 28.9746 6.9043C29.0202 6.98242 29.0527 7.07031 29.0723 7.16797C29.0983 7.25911 29.1146 7.34375 29.1211 7.42188C29.1406 7.58464 29.0983 7.75391 28.9941 7.92969C28.89 8.10547 28.763 8.29753 28.6133 8.50586C28.5221 8.63607 28.431 8.78255 28.3398 8.94531C28.2487 9.10807 28.2096 9.25456 28.2227 9.38477C28.2357 9.4694 28.2585 9.53776 28.291 9.58984C28.3236 9.64193 28.4147 9.66797 28.5645 9.66797C28.6751 9.66797 28.7956 9.62891 28.9258 9.55078C29.0625 9.46615 29.1992 9.36198 29.3359 9.23828C29.4792 9.10807 29.6191 8.9681 29.7559 8.81836C29.8926 8.66211 30.0195 8.51237 30.1367 8.36914C30.2539 8.2194 30.3516 8.08594 30.4297 7.96875C30.5143 7.85156 30.5762 7.76693 30.6152 7.71484C30.6478 7.66276 30.6901 7.62695 30.7422 7.60742C30.7943 7.58789 30.8398 7.58789 30.8789 7.60742C30.918 7.62695 30.9408 7.66602 30.9473 7.72461C30.9603 7.7832 30.9375 7.86133 30.8789 7.95898C30.8398 8.02409 30.7715 8.12826 30.6738 8.27148C30.5827 8.41471 30.4688 8.57422 30.332 8.75C30.2018 8.92578 30.0553 9.10807 29.8926 9.29688C29.7298 9.47917 29.5573 9.64844 29.375 9.80469C29.1992 9.95443 29.0202 10.0781 28.8379 10.1758C28.6621 10.2734 28.4928 10.3223 28.3301 10.3223C28.1608 10.3223 28.0208 10.2897 27.9102 10.2246C27.7995 10.1595 27.7083 10.0814 27.6367 9.99023C27.5716 9.89258 27.5228 9.78841 27.4902 9.67773C27.4642 9.56055 27.4544 9.45312 27.4609 9.35547C27.4674 9.27734 27.487 9.19596 27.5195 9.11133C27.5586 9.02018 27.6009 8.92904 27.6465 8.83789C27.6986 8.74023 27.7507 8.64583 27.8027 8.55469C27.8613 8.45703 27.9134 8.36263 27.959 8.27148C28.0697 8.08268 28.1576 7.92318 28.2227 7.79297C28.2943 7.65625 28.3301 7.54232 28.3301 7.45117C28.3301 7.39258 28.3171 7.34049 28.291 7.29492C28.265 7.24935 28.2227 7.22656 28.1641 7.22656C28.125 7.22656 28.0957 7.22982 28.0762 7.23633C28.0632 7.23633 28.0469 7.23633 28.0273 7.23633C28.0143 7.23633 27.9915 7.23958 27.959 7.24609C27.9329 7.24609 27.8906 7.24609 27.832 7.24609C27.7474 7.24609 27.6758 7.23307 27.6172 7.20703C27.5586 7.18099 27.5033 7.16146 27.4512 7.14844C27.4251 7.19401 27.3665 7.29167 27.2754 7.44141C27.1842 7.59115 27.0768 7.76693 26.9531 7.96875C26.8359 8.17057 26.709 8.38216 26.5723 8.60352C26.4421 8.82487 26.3184 9.0332 26.2012 9.22852C26.084 9.41732 25.9863 9.58008 25.9082 9.7168C25.8236 9.84701 25.7715 9.92513 25.752 9.95117ZM33.0762 8.44727C33.0111 8.69466 32.9232 8.92578 32.8125 9.14062C32.7018 9.35547 32.5684 9.54102 32.4121 9.69727C32.2624 9.85352 32.0898 9.97396 31.8945 10.0586C31.7057 10.1497 31.4974 10.1953 31.2695 10.1953C31.0026 10.1953 30.791 10.1367 30.6348 10.0195C30.485 9.90885 30.3711 9.76888 30.293 9.59961C30.2214 9.43034 30.179 9.24479 30.166 9.04297C30.1465 8.84115 30.1367 8.65234 30.1367 8.47656C30.1367 8.35286 30.153 8.21615 30.1855 8.06641C30.2116 7.91667 30.2507 7.76367 30.3027 7.60742C30.3548 7.45117 30.4199 7.29492 30.498 7.13867C30.5827 6.98242 30.6803 6.83919 30.791 6.70898C30.8301 6.59831 30.8887 6.50065 30.9668 6.41602C31.0514 6.33138 31.1458 6.26302 31.25 6.21094C31.3607 6.15234 31.4779 6.11003 31.6016 6.08398C31.7253 6.05143 31.8457 6.03516 31.9629 6.03516C31.9824 6.03516 31.9987 6.03841 32.0117 6.04492C32.0312 6.05143 32.0508 6.05794 32.0703 6.06445C32.1549 6.07096 32.2591 6.10352 32.3828 6.16211C32.513 6.2207 32.6367 6.30859 32.7539 6.42578C32.8776 6.54297 32.9818 6.69271 33.0664 6.875C33.151 7.05078 33.1934 7.26562 33.1934 7.51953C33.1934 7.57161 33.1901 7.63672 33.1836 7.71484C33.1771 7.78646 33.1706 7.84831 33.1641 7.90039C33.3138 7.8418 33.4701 7.77018 33.6328 7.68555C33.7956 7.60091 33.9518 7.51302 34.1016 7.42188C34.2578 7.32422 34.401 7.22656 34.5312 7.12891C34.6615 7.03125 34.7656 6.94336 34.8438 6.86523C34.9089 6.80664 34.9642 6.77409 35.0098 6.76758C35.0553 6.76107 35.0879 6.77409 35.1074 6.80664C35.127 6.83919 35.1302 6.88477 35.1172 6.94336C35.1042 7.00195 35.0684 7.06706 35.0098 7.13867C34.9772 7.17773 34.8926 7.25586 34.7559 7.37305C34.6257 7.49023 34.4694 7.61719 34.2871 7.75391C34.1048 7.89062 33.9062 8.02409 33.6914 8.1543C33.4766 8.28451 33.2715 8.38216 33.0762 8.44727ZM31.4258 6.96289C31.4062 7.02148 31.3965 7.08333 31.3965 7.14844C31.3965 7.2526 31.403 7.36328 31.416 7.48047C31.429 7.59115 31.4616 7.69206 31.5137 7.7832C31.5658 7.87435 31.6471 7.95247 31.7578 8.01758C31.875 8.07617 32.0345 8.10547 32.2363 8.10547C32.2689 8.10547 32.3014 8.10547 32.334 8.10547C32.3665 8.09896 32.3991 8.09245 32.4316 8.08594C32.4512 8.0013 32.4674 7.92643 32.4805 7.86133C32.5 7.78971 32.5098 7.72786 32.5098 7.67578C32.5228 7.55208 32.5228 7.42513 32.5098 7.29492C32.4967 7.16471 32.4707 7.04753 32.4316 6.94336C32.3991 6.83268 32.3535 6.74479 32.2949 6.67969C32.2428 6.60807 32.1777 6.57227 32.0996 6.57227C31.9759 6.57227 31.8555 6.60807 31.7383 6.67969C31.6276 6.74479 31.5234 6.83919 31.4258 6.96289ZM30.8008 8.68164C30.8008 8.79883 30.8073 8.91602 30.8203 9.0332C30.8333 9.14388 30.8594 9.24479 30.8984 9.33594C30.9375 9.42057 30.9896 9.49219 31.0547 9.55078C31.1198 9.60286 31.2044 9.62891 31.3086 9.62891C31.4258 9.62891 31.5332 9.60286 31.6309 9.55078C31.7285 9.49219 31.8164 9.42057 31.8945 9.33594C31.9727 9.24479 32.041 9.14388 32.0996 9.0332C32.1647 8.91602 32.2201 8.79557 32.2656 8.67188C32.2201 8.67839 32.1745 8.6849 32.1289 8.69141C32.0898 8.69141 32.0443 8.69141 31.9922 8.69141C31.7448 8.69141 31.5299 8.61979 31.3477 8.47656C31.1719 8.32682 31.0352 8.13802 30.9375 7.91016C30.8984 8.04688 30.8659 8.18034 30.8398 8.31055C30.8138 8.44076 30.8008 8.56445 30.8008 8.68164ZM37.0117 8.44727C36.9466 8.69466 36.8587 8.92578 36.748 9.14062C36.6374 9.35547 36.5039 9.54102 36.3477 9.69727C36.1979 9.85352 36.0254 9.97396 35.8301 10.0586C35.6413 10.1497 35.4329 10.1953 35.2051 10.1953C34.9382 10.1953 34.7266 10.1367 34.5703 10.0195C34.4206 9.90885 34.3066 9.76888 34.2285 9.59961C34.1569 9.43034 34.1146 9.24479 34.1016 9.04297C34.082 8.84115 34.0723 8.65234 34.0723 8.47656C34.0723 8.35286 34.0885 8.21615 34.1211 8.06641C34.1471 7.91667 34.1862 7.76367 34.2383 7.60742C34.2904 7.45117 34.3555 7.29492 34.4336 7.13867C34.5182 6.98242 34.6159 6.83919 34.7266 6.70898C34.7656 6.59831 34.8242 6.50065 34.9023 6.41602C34.987 6.33138 35.0814 6.26302 35.1855 6.21094C35.2962 6.15234 35.4134 6.11003 35.5371 6.08398C35.6608 6.05143 35.7812 6.03516 35.8984 6.03516C35.918 6.03516 35.9342 6.03841 35.9473 6.04492C35.9668 6.05143 35.9863 6.05794 36.0059 6.06445C36.0905 6.07096 36.1947 6.10352 36.3184 6.16211C36.4486 6.2207 36.5723 6.30859 36.6895 6.42578C36.8132 6.54297 36.9173 6.69271 37.002 6.875C37.0866 7.05078 37.1289 7.26562 37.1289 7.51953C37.1289 7.57161 37.1257 7.63672 37.1191 7.71484C37.1126 7.78646 37.1061 7.84831 37.0996 7.90039C37.2493 7.8418 37.4056 7.77018 37.5684 7.68555C37.7311 7.60091 37.8874 7.51302 38.0371 7.42188C38.1934 7.32422 38.3366 7.22656 38.4668 7.12891C38.597 7.03125 38.7012 6.94336 38.7793 6.86523C38.8444 6.80664 38.8997 6.77409 38.9453 6.76758C38.9909 6.76107 39.0234 6.77409 39.043 6.80664C39.0625 6.83919 39.0658 6.88477 39.0527 6.94336C39.0397 7.00195 39.0039 7.06706 38.9453 7.13867C38.9128 7.17773 38.8281 7.25586 38.6914 7.37305C38.5612 7.49023 38.4049 7.61719 38.2227 7.75391C38.0404 7.89062 37.8418 8.02409 37.627 8.1543C37.4121 8.28451 37.207 8.38216 37.0117 8.44727ZM35.3613 6.96289C35.3418 7.02148 35.332 7.08333 35.332 7.14844C35.332 7.2526 35.3385 7.36328 35.3516 7.48047C35.3646 7.59115 35.3971 7.69206 35.4492 7.7832C35.5013 7.87435 35.5827 7.95247 35.6934 8.01758C35.8105 8.07617 35.9701 8.10547 36.1719 8.10547C36.2044 8.10547 36.237 8.10547 36.2695 8.10547C36.3021 8.09896 36.3346 8.09245 36.3672 8.08594C36.3867 8.0013 36.403 7.92643 36.416 7.86133C36.4355 7.78971 36.4453 7.72786 36.4453 7.67578C36.4583 7.55208 36.4583 7.42513 36.4453 7.29492C36.4323 7.16471 36.4062 7.04753 36.3672 6.94336C36.3346 6.83268 36.2891 6.74479 36.2305 6.67969C36.1784 6.60807 36.1133 6.57227 36.0352 6.57227C35.9115 6.57227 35.791 6.60807 35.6738 6.67969C35.5632 6.74479 35.459 6.83919 35.3613 6.96289ZM34.7363 8.68164C34.7363 8.79883 34.7428 8.91602 34.7559 9.0332C34.7689 9.14388 34.7949 9.24479 34.834 9.33594C34.873 9.42057 34.9251 9.49219 34.9902 9.55078C35.0553 9.60286 35.14 9.62891 35.2441 9.62891C35.3613 9.62891 35.4688 9.60286 35.5664 9.55078C35.6641 9.49219 35.752 9.42057 35.8301 9.33594C35.9082 9.24479 35.9766 9.14388 36.0352 9.0332C36.1003 8.91602 36.1556 8.79557 36.2012 8.67188C36.1556 8.67839 36.11 8.6849 36.0645 8.69141C36.0254 8.69141 35.9798 8.69141 35.9277 8.69141C35.6803 8.69141 35.4655 8.61979 35.2832 8.47656C35.1074 8.32682 34.9707 8.13802 34.873 7.91016C34.834 8.04688 34.8014 8.18034 34.7754 8.31055C34.7493 8.44076 34.7363 8.56445 34.7363 8.68164ZM40.918 8.26172C40.7487 8.50911 40.5729 8.75 40.3906 8.98438C40.2148 9.21875 40.0423 9.43034 39.873 9.61914C39.7103 9.80143 39.5573 9.94792 39.4141 10.0586C39.2773 10.1758 39.1667 10.2344 39.082 10.2344C38.8802 10.2344 38.7142 10.14 38.584 9.95117C38.4603 9.75586 38.3626 9.51823 38.291 9.23828C38.2259 8.95182 38.1836 8.64909 38.1641 8.33008C38.151 8.00456 38.1543 7.71484 38.1738 7.46094C38.1999 7.20703 38.2292 7.00521 38.2617 6.85547C38.2943 6.69922 38.3333 6.57878 38.3789 6.49414C38.431 6.40951 38.4896 6.34766 38.5547 6.30859C38.6263 6.26953 38.7142 6.23698 38.8184 6.21094C38.8639 6.19792 38.916 6.18815 38.9746 6.18164C39.0332 6.17513 39.0853 6.17839 39.1309 6.19141C39.1829 6.19792 39.222 6.21745 39.248 6.25C39.2741 6.28255 39.2773 6.33138 39.2578 6.39648C39.2448 6.45508 39.222 6.54297 39.1895 6.66016C39.1634 6.77083 39.1341 6.89779 39.1016 7.04102C39.069 7.18424 39.0365 7.33398 39.0039 7.49023C38.9779 7.64648 38.9583 7.79622 38.9453 7.93945C38.9258 8.18685 38.9258 8.40495 38.9453 8.59375C38.9648 8.77604 38.9941 8.93229 39.0332 9.0625C39.0723 9.1862 39.1146 9.2806 39.1602 9.3457C39.2057 9.41081 39.2415 9.44336 39.2676 9.44336C39.3001 9.44336 39.3587 9.40104 39.4434 9.31641C39.5345 9.22526 39.6354 9.10807 39.7461 8.96484C39.8633 8.82161 39.9837 8.6556 40.1074 8.4668C40.2376 8.27799 40.3581 8.08268 40.4688 7.88086C40.4297 7.77669 40.4134 7.65299 40.4199 7.50977C40.4395 7.28841 40.4883 7.08984 40.5664 6.91406C40.6445 6.73177 40.7324 6.57878 40.8301 6.45508C40.9342 6.33138 41.0384 6.23698 41.1426 6.17188C41.2533 6.10026 41.3509 6.06445 41.4355 6.06445C41.6048 6.06445 41.709 6.11003 41.748 6.20117C41.7936 6.28581 41.8099 6.3737 41.7969 6.46484C41.7839 6.60156 41.722 6.79036 41.6113 7.03125C41.5072 7.26562 41.3704 7.52279 41.2012 7.80273C41.2337 7.81576 41.2695 7.82878 41.3086 7.8418C41.3477 7.85482 41.3932 7.86133 41.4453 7.86133C41.6667 7.86133 41.8652 7.83529 42.041 7.7832C42.2233 7.73112 42.3796 7.66927 42.5098 7.59766C42.6465 7.52604 42.7604 7.45117 42.8516 7.37305C42.9492 7.28841 43.0273 7.22005 43.0859 7.16797C43.125 7.12891 43.1641 7.10938 43.2031 7.10938C43.2422 7.10938 43.2747 7.11914 43.3008 7.13867C43.3268 7.1582 43.3398 7.1875 43.3398 7.22656C43.3398 7.26562 43.3203 7.30794 43.2812 7.35352C43.0469 7.63997 42.7604 7.87109 42.4219 8.04688C42.0898 8.22266 41.6992 8.31055 41.25 8.31055C41.2109 8.31055 41.1621 8.30729 41.1035 8.30078C41.0449 8.29427 40.9831 8.28125 40.918 8.26172ZM44.9023 6.40625C44.987 6.34115 45.0684 6.29232 45.1465 6.25977C45.2311 6.2207 45.306 6.19466 45.3711 6.18164C45.4427 6.16211 45.5143 6.1556 45.5859 6.16211C45.7617 6.17513 45.8691 6.23047 45.9082 6.32812C45.9538 6.42578 45.9603 6.58203 45.9277 6.79688C45.9082 6.90755 45.8691 7.04753 45.8105 7.2168C45.752 7.38607 45.6836 7.5944 45.6055 7.8418C45.5273 8.08268 45.4427 8.35938 45.3516 8.67188C45.2669 8.98438 45.1855 9.33594 45.1074 9.72656C45.0293 10.0456 44.9447 10.4134 44.8535 10.8301C44.7754 11.1947 44.681 11.6341 44.5703 12.1484C44.4661 12.6628 44.3522 13.252 44.2285 13.916C44.196 14.0788 44.1243 14.1732 44.0137 14.1992C43.9095 14.2253 43.7988 14.2122 43.6816 14.1602C43.6361 14.1341 43.5938 14.1048 43.5547 14.0723C43.5221 14.0397 43.4863 14.0007 43.4473 13.9551C43.4082 13.916 43.3757 13.8607 43.3496 13.7891C43.4993 13.2422 43.6296 12.7441 43.7402 12.2949C43.8574 11.8457 43.9616 11.4551 44.0527 11.123C44.1504 10.7389 44.2415 10.3939 44.3262 10.0879C44.3587 9.95117 44.388 9.81771 44.4141 9.6875C44.4466 9.55078 44.4792 9.41732 44.5117 9.28711C44.4271 9.42383 44.3359 9.55404 44.2383 9.67773C44.1406 9.80143 44.0332 9.90885 43.916 10C43.7988 10.0911 43.6719 10.1595 43.5352 10.2051C43.4049 10.2572 43.2682 10.2734 43.125 10.2539C42.7734 10.2083 42.5228 10.0781 42.373 9.86328C42.2298 9.64844 42.168 9.36849 42.1875 9.02344C42.194 8.88672 42.2135 8.73698 42.2461 8.57422C42.2786 8.41146 42.3145 8.25521 42.3535 8.10547C42.3926 7.95573 42.4284 7.82227 42.4609 7.70508C42.5 7.58138 42.5293 7.49349 42.5488 7.44141C42.627 7.19401 42.6823 6.98242 42.7148 6.80664C42.7539 6.63086 42.7279 6.48438 42.6367 6.36719C42.7279 6.30859 42.8125 6.26953 42.8906 6.25C42.9753 6.22396 43.0501 6.20443 43.1152 6.19141C43.1868 6.1849 43.2585 6.1849 43.3301 6.19141C43.5059 6.21745 43.6068 6.28255 43.6328 6.38672C43.6654 6.49089 43.6556 6.64714 43.6035 6.85547C43.5775 6.96615 43.5352 7.10938 43.4766 7.28516C43.418 7.45443 43.3561 7.63021 43.291 7.8125C43.2259 7.99479 43.1673 8.16406 43.1152 8.32031C43.0632 8.47005 43.0339 8.57747 43.0273 8.64258C42.9688 8.93555 42.9655 9.16341 43.0176 9.32617C43.0697 9.48242 43.1836 9.56055 43.3594 9.56055C43.444 9.56055 43.5384 9.52474 43.6426 9.45312C43.7467 9.375 43.8509 9.27409 43.9551 9.15039C44.0658 9.02669 44.1732 8.88672 44.2773 8.73047C44.3815 8.56771 44.4759 8.40495 44.5605 8.24219C44.6517 8.07943 44.7298 7.91992 44.7949 7.76367C44.8665 7.60742 44.9186 7.46745 44.9512 7.34375C44.9967 7.10286 45.026 6.91406 45.0391 6.77734C45.0521 6.64062 45.0065 6.51693 44.9023 6.40625ZM48.7012 11.3965C48.7272 11.377 48.7695 11.3444 48.8281 11.2988C48.8802 11.2533 48.9453 11.1686 49.0234 11.0449C49.0951 10.9212 49.1764 10.7422 49.2676 10.5078C49.3587 10.2734 49.4531 9.95443 49.5508 9.55078C49.6029 9.33594 49.6712 9.0625 49.7559 8.73047C49.8405 8.39844 49.9316 8.04362 50.0293 7.66602C50.1335 7.28841 50.2376 6.90104 50.3418 6.50391C50.446 6.10026 50.5469 5.7194 50.6445 5.36133C50.7422 4.99674 50.8301 4.66797 50.9082 4.375C50.9863 4.08203 51.0482 3.85417 51.0938 3.69141C50.9701 3.76953 50.8496 3.85742 50.7324 3.95508C50.6283 4.03971 50.5176 4.13737 50.4004 4.24805C50.2832 4.35221 50.1693 4.46289 50.0586 4.58008C49.974 4.50846 49.9089 4.43034 49.8633 4.3457C49.8372 4.30664 49.8145 4.26432 49.7949 4.21875C49.7559 4.12109 49.7363 4.02018 49.7363 3.91602C49.7363 3.81185 49.8177 3.70443 49.9805 3.59375C50.0651 3.53516 50.1921 3.45052 50.3613 3.33984C50.5371 3.22917 50.752 3.12174 51.0059 3.01758C51.2598 2.9069 51.556 2.8125 51.8945 2.73438C52.2331 2.65625 52.6074 2.61719 53.0176 2.61719C53.4277 2.61719 53.7565 2.69857 54.0039 2.86133C54.2578 3.02409 54.4499 3.22266 54.5801 3.45703C54.7168 3.69141 54.8047 3.9388 54.8438 4.19922C54.8828 4.45964 54.8926 4.6875 54.873 4.88281C54.834 5.2474 54.7168 5.62826 54.5215 6.02539C54.3262 6.42253 54.056 6.79036 53.7109 7.12891C53.3659 7.46094 52.946 7.74414 52.4512 7.97852C51.9564 8.21289 51.39 8.34635 50.752 8.37891C50.6999 8.6263 50.6478 8.88021 50.5957 9.14062C50.5436 9.40104 50.4883 9.6582 50.4297 9.91211C50.3711 10.1595 50.3092 10.3906 50.2441 10.6055C50.1855 10.8268 50.1237 11.0156 50.0586 11.1719C49.9935 11.3411 49.9089 11.4746 49.8047 11.5723C49.7005 11.6764 49.5345 11.7285 49.3066 11.7285C49.1895 11.7285 49.082 11.6992 48.9844 11.6406C48.8802 11.582 48.7858 11.5007 48.7012 11.3965ZM51.0156 6.94336C50.9961 7.04753 50.9701 7.18424 50.9375 7.35352C50.9115 7.51628 50.8789 7.70182 50.8398 7.91016C51.0156 7.88411 51.2109 7.83854 51.4258 7.77344C51.6406 7.70182 51.8555 7.60742 52.0703 7.49023C52.2852 7.37305 52.4935 7.23307 52.6953 7.07031C52.9036 6.90104 53.0924 6.70898 53.2617 6.49414C53.431 6.27279 53.571 6.02539 53.6816 5.75195C53.7988 5.47201 53.8737 5.16276 53.9062 4.82422C53.9388 4.4987 53.9193 4.22852 53.8477 4.01367C53.7826 3.79232 53.6849 3.61654 53.5547 3.48633C53.4245 3.34961 53.2747 3.25521 53.1055 3.20312C52.9362 3.14453 52.7669 3.11523 52.5977 3.11523C52.4349 3.11523 52.2754 3.13802 52.1191 3.18359C51.9629 3.22917 51.8066 3.28776 51.6504 3.35938C51.6699 3.36589 51.6927 3.38216 51.7188 3.4082C51.7578 3.44727 51.7871 3.5026 51.8066 3.57422C51.6504 4.20573 51.5202 4.73307 51.416 5.15625C51.3184 5.57943 51.2402 5.92448 51.1816 6.19141C51.11 6.50391 51.0547 6.75456 51.0156 6.94336ZM55.9375 10.1562C55.6901 10.1562 55.4883 10.1172 55.332 10.0391C55.1758 9.96094 55.0521 9.86654 54.9609 9.75586C54.8763 9.63867 54.8145 9.51497 54.7754 9.38477C54.7428 9.24805 54.7266 9.12435 54.7266 9.01367C54.7266 8.81836 54.7428 8.61328 54.7754 8.39844C54.8079 8.17708 54.847 7.97526 54.8926 7.79297C54.9382 7.60417 54.9772 7.44466 55.0098 7.31445C55.0488 7.18424 55.0749 7.10286 55.0879 7.07031C55.1465 6.88151 55.2214 6.71875 55.3125 6.58203C55.4102 6.4388 55.5436 6.34115 55.7129 6.28906C55.778 6.27604 55.8464 6.26302 55.918 6.25C55.9766 6.24349 56.0352 6.24023 56.0938 6.24023C56.1589 6.24023 56.2174 6.25 56.2695 6.26953C56.0938 6.71875 55.9538 7.0931 55.8496 7.39258C55.752 7.69206 55.6771 7.9362 55.625 8.125C55.5664 8.33984 55.5306 8.51237 55.5176 8.64258C55.485 8.93555 55.5111 9.1569 55.5957 9.30664C55.6803 9.45638 55.8529 9.53125 56.1133 9.53125C56.2826 9.53125 56.4453 9.4694 56.6016 9.3457C56.7578 9.21549 56.901 9.04948 57.0312 8.84766C57.0117 8.74349 57.002 8.63607 57.002 8.52539C57.002 8.31706 57.0182 8.11523 57.0508 7.91992C57.0898 7.7181 57.1322 7.53255 57.1777 7.36328C57.2298 7.1875 57.2819 7.03125 57.334 6.89453C57.3926 6.75781 57.4414 6.65039 57.4805 6.57227C57.5521 6.41602 57.6172 6.32161 57.6758 6.28906C57.7344 6.25 57.8288 6.22721 57.959 6.2207C58.0111 6.21419 58.0534 6.21419 58.0859 6.2207C58.125 6.2207 58.1576 6.22396 58.1836 6.23047C58.2617 6.25 58.3008 6.28906 58.3008 6.34766C58.3008 6.45182 58.2943 6.60807 58.2812 6.81641C58.2682 7.02474 58.2292 7.23958 58.1641 7.46094C58.1185 7.64323 58.0729 7.79948 58.0273 7.92969C57.9883 8.05339 57.9492 8.16081 57.9102 8.25195C57.8711 8.33659 57.832 8.4082 57.793 8.4668C57.7539 8.51888 57.7181 8.56771 57.6855 8.61328C57.6986 8.80859 57.7148 8.96484 57.7344 9.08203C57.7539 9.19922 57.7767 9.29036 57.8027 9.35547C57.8353 9.41406 57.8711 9.45638 57.9102 9.48242C57.9557 9.50195 58.0046 9.51172 58.0566 9.51172C58.1478 9.51172 58.2552 9.4694 58.3789 9.38477C58.5026 9.29362 58.6296 9.18294 58.7598 9.05273C58.8965 8.91602 59.0299 8.76953 59.1602 8.61328C59.2969 8.45052 59.4206 8.29753 59.5312 8.1543C59.6419 8.01107 59.7363 7.88737 59.8145 7.7832C59.8926 7.67253 59.9414 7.60417 59.9609 7.57812C60.0065 7.51953 60.0488 7.48372 60.0879 7.4707C60.1335 7.45768 60.1693 7.46419 60.1953 7.49023C60.2214 7.50977 60.2344 7.54557 60.2344 7.59766C60.2409 7.64323 60.2279 7.69531 60.1953 7.75391C60.0651 8.0013 59.9023 8.26497 59.707 8.54492C59.5182 8.81836 59.3132 9.07227 59.0918 9.30664C58.877 9.54102 58.6589 9.73633 58.4375 9.89258C58.2161 10.0488 58.0078 10.127 57.8125 10.127C57.6367 10.127 57.4967 10.0684 57.3926 9.95117C57.2949 9.82747 57.2103 9.65169 57.1387 9.42383C56.9889 9.6582 56.8132 9.84049 56.6113 9.9707C56.4095 10.0944 56.1849 10.1562 55.9375 10.1562ZM58.7109 14.1699C58.6654 14.1504 58.6198 14.1211 58.5742 14.082C58.5352 14.0495 58.4961 14.0072 58.457 13.9551C58.418 13.9095 58.3854 13.8509 58.3594 13.7793C58.5417 13.0827 58.6979 12.4772 58.8281 11.9629C58.9518 11.4486 59.0592 11.0189 59.1504 10.6738C59.248 10.2702 59.3327 9.93164 59.4043 9.6582C59.4694 9.39779 59.5345 9.13737 59.5996 8.87695C59.6517 8.64909 59.707 8.40495 59.7656 8.14453C59.8307 7.88411 59.8893 7.63997 59.9414 7.41211C60.0065 7.1582 60.0456 6.95638 60.0586 6.80664C60.0716 6.65039 60.0228 6.51693 59.9121 6.40625C59.9902 6.34115 60.0684 6.29232 60.1465 6.25977C60.2311 6.2207 60.306 6.19466 60.3711 6.18164C60.4427 6.16211 60.5143 6.1556 60.5859 6.16211C60.7617 6.17513 60.8691 6.23047 60.9082 6.32812C60.9538 6.42578 60.9603 6.58203 60.9277 6.79688C60.9212 6.82943 60.9147 6.85872 60.9082 6.88477C60.9082 6.9043 60.9082 6.92708 60.9082 6.95312C60.9993 6.84896 61.1003 6.74805 61.2109 6.65039C61.3216 6.55273 61.4323 6.46484 61.543 6.38672C61.6602 6.30859 61.7773 6.24674 61.8945 6.20117C62.0182 6.14909 62.1354 6.12305 62.2461 6.12305C62.3958 6.12305 62.5163 6.16211 62.6074 6.24023C62.7051 6.31185 62.7799 6.40951 62.832 6.5332C62.8841 6.6569 62.9167 6.79688 62.9297 6.95312C62.9427 7.10286 62.946 7.2526 62.9395 7.40234C62.9329 7.5651 62.9036 7.73763 62.8516 7.91992C62.806 8.10221 62.7409 8.28776 62.6562 8.47656C62.5716 8.66536 62.474 8.85091 62.3633 9.0332C62.2526 9.21549 62.1354 9.38477 62.0117 9.54102C62.0378 9.54753 62.054 9.55404 62.0605 9.56055C62.0671 9.56055 62.0703 9.5638 62.0703 9.57031C62.0703 9.57031 62.0736 9.57357 62.0801 9.58008C62.0931 9.58008 62.1159 9.58008 62.1484 9.58008C62.2982 9.58008 62.4512 9.54102 62.6074 9.46289C62.7637 9.38477 62.9167 9.28711 63.0664 9.16992C63.2161 9.04622 63.3594 8.91276 63.4961 8.76953C63.6393 8.6263 63.7663 8.48958 63.877 8.35938C63.9941 8.22266 64.0918 8.10221 64.1699 7.99805C64.248 7.88737 64.3066 7.80924 64.3457 7.76367C64.3978 7.69857 64.4466 7.65625 64.4922 7.63672C64.5378 7.61068 64.5736 7.60742 64.5996 7.62695C64.6257 7.64648 64.6387 7.68555 64.6387 7.74414C64.6387 7.79622 64.6191 7.86458 64.5801 7.94922C64.554 8.00781 64.4987 8.10221 64.4141 8.23242C64.3294 8.36263 64.2253 8.50911 64.1016 8.67188C63.9779 8.83464 63.8346 9.00391 63.6719 9.17969C63.5156 9.35547 63.3496 9.51497 63.1738 9.6582C62.998 9.80143 62.8158 9.91862 62.627 10.0098C62.4447 10.1074 62.2656 10.1562 62.0898 10.1562C62.0052 10.1562 61.9368 10.153 61.8848 10.1465C61.8327 10.14 61.7871 10.127 61.748 10.1074C61.7155 10.0944 61.6829 10.0781 61.6504 10.0586C61.6178 10.0456 61.5788 10.0293 61.5332 10.0098C61.416 10.1009 61.2956 10.1693 61.1719 10.2148C61.0482 10.2669 60.9277 10.293 60.8105 10.293C60.6999 10.293 60.6022 10.2734 60.5176 10.2344C60.4395 10.2018 60.3743 10.153 60.3223 10.0879C60.2702 10.0293 60.2279 9.96419 60.1953 9.89258C60.1628 9.81445 60.1367 9.73958 60.1172 9.66797C60.1107 9.69401 60.1042 9.7168 60.0977 9.73633C60.0977 9.75586 60.0944 9.7819 60.0879 9.81445C60.0098 10.127 59.9284 10.4883 59.8438 10.8984C59.7721 11.25 59.6842 11.6764 59.5801 12.1777C59.4824 12.6855 59.3783 13.2617 59.2676 13.9062C59.2285 14.082 59.1602 14.1829 59.0625 14.209C58.9583 14.235 58.8411 14.222 58.7109 14.1699ZM60.498 8.11523C60.4655 8.22591 60.4297 8.35612 60.3906 8.50586C60.3581 8.64909 60.319 8.82161 60.2734 9.02344C60.3255 8.98438 60.3841 8.95508 60.4492 8.93555C60.5143 8.91602 60.5794 8.90625 60.6445 8.90625C60.7161 8.90625 60.8073 8.94531 60.918 9.02344C61.0286 9.09505 61.1621 9.17318 61.3184 9.25781C61.416 9.14062 61.5169 9.01042 61.6211 8.86719C61.7318 8.71745 61.8294 8.56445 61.9141 8.4082C62.0052 8.25195 62.0801 8.09245 62.1387 7.92969C62.2038 7.76693 62.2396 7.61068 62.2461 7.46094C62.2591 7.26562 62.2363 7.11263 62.1777 7.00195C62.1191 6.89128 62.0215 6.83594 61.8848 6.83594C61.6829 6.83594 61.4616 6.95638 61.2207 7.19727C60.9863 7.43164 60.7454 7.73763 60.498 8.11523ZM65.3027 9.66797C65.3418 9.69401 65.3906 9.70703 65.4492 9.70703C65.5143 9.70703 65.5762 9.69401 65.6348 9.66797C65.6999 9.64193 65.7585 9.60612 65.8105 9.56055C65.8691 9.51497 65.9115 9.45638 65.9375 9.38477C65.9635 9.31315 65.9635 9.21224 65.9375 9.08203C65.9115 8.94531 65.8691 8.80208 65.8105 8.65234C65.7585 8.49609 65.6999 8.33984 65.6348 8.18359C65.5697 8.02734 65.5143 7.88411 65.4688 7.75391C65.4297 7.65625 65.3971 7.5651 65.3711 7.48047C65.3451 7.40885 65.319 7.34049 65.293 7.27539C65.2734 7.20378 65.2572 7.15495 65.2441 7.12891C65.2116 7.18099 65.153 7.26562 65.0684 7.38281C64.9902 7.5 64.9023 7.6237 64.8047 7.75391C64.7135 7.8776 64.6257 7.99479 64.541 8.10547C64.4564 8.20964 64.3978 8.28125 64.3652 8.32031C64.3132 8.37891 64.2611 8.41471 64.209 8.42773C64.1634 8.43424 64.1243 8.42448 64.0918 8.39844C64.0592 8.36589 64.0397 8.32357 64.0332 8.27148C64.0332 8.21289 64.0592 8.14453 64.1113 8.06641C64.1504 8.01432 64.209 7.93294 64.2871 7.82227C64.3652 7.70508 64.4434 7.58789 64.5215 7.4707C64.5996 7.34701 64.6712 7.23958 64.7363 7.14844C64.8014 7.05078 64.8372 6.99219 64.8438 6.97266C64.8568 6.92057 64.8372 6.85221 64.7852 6.76758C64.7396 6.68294 64.7331 6.58529 64.7656 6.47461C64.7917 6.38346 64.8503 6.2793 64.9414 6.16211C65.0326 6.03841 65.14 5.92773 65.2637 5.83008C65.3874 5.73242 65.5143 5.66081 65.6445 5.61523C65.7747 5.56315 65.8919 5.56315 65.9961 5.61523C66.0807 5.66732 66.1491 5.72591 66.2012 5.79102C66.2533 5.84961 66.2728 5.91146 66.2598 5.97656C66.2467 6.00911 66.2272 6.05143 66.2012 6.10352C66.1751 6.1556 66.1361 6.2207 66.084 6.29883C66.0319 6.37044 65.957 6.46484 65.8594 6.58203C65.8789 6.73177 65.9049 6.86849 65.9375 6.99219C65.9766 7.11589 66.0124 7.22331 66.0449 7.31445C66.084 7.42513 66.1263 7.52604 66.1719 7.61719C66.2305 7.73438 66.2923 7.85482 66.3574 7.97852C66.4225 8.10221 66.4811 8.22591 66.5332 8.34961C66.5853 8.4668 66.6276 8.57747 66.6602 8.68164C66.6927 8.78581 66.7025 8.8737 66.6895 8.94531C66.6699 9.05599 66.6113 9.18945 66.5137 9.3457C66.4225 9.50195 66.3053 9.65495 66.1621 9.80469C66.0254 9.94792 65.8659 10.0716 65.6836 10.1758C65.5078 10.2799 65.3223 10.332 65.127 10.332C64.9902 10.332 64.8568 10.2897 64.7266 10.2051C64.6029 10.1204 64.4954 10.0228 64.4043 9.91211C64.3197 9.79492 64.2546 9.68099 64.209 9.57031C64.1699 9.45964 64.1667 9.375 64.1992 9.31641C64.2383 9.23828 64.2741 9.17643 64.3066 9.13086C64.3392 9.08529 64.388 9.0332 64.4531 8.97461C64.4792 8.95508 64.5117 8.93229 64.5508 8.90625C64.5833 8.88672 64.6289 8.86719 64.6875 8.84766C64.7461 8.82812 64.8145 8.80534 64.8926 8.7793C64.9577 8.98112 65.0163 9.14062 65.0684 9.25781C65.1204 9.36849 65.1628 9.45638 65.1953 9.52148C65.2344 9.5931 65.2702 9.64193 65.3027 9.66797ZM73.8281 5.51758C73.8216 5.49805 73.8411 5.44922 73.8867 5.37109C73.9323 5.28646 73.9811 5.18555 74.0332 5.06836C74.0918 4.94466 74.1471 4.80794 74.1992 4.6582C74.2578 4.50195 74.2969 4.34245 74.3164 4.17969C74.3424 4.01693 74.3424 3.85417 74.3164 3.69141C74.2904 3.52865 74.222 3.3724 74.1113 3.22266C74.0462 3.14453 73.9486 3.10221 73.8184 3.0957C73.6947 3.08268 73.5514 3.10221 73.3887 3.1543C73.2324 3.19987 73.0664 3.27474 72.8906 3.37891C72.7214 3.47656 72.5651 3.59375 72.4219 3.73047C72.2786 3.86068 72.1549 4.00716 72.0508 4.16992C71.9531 4.33268 71.8978 4.4987 71.8848 4.66797C71.8717 4.80469 71.875 4.93164 71.8945 5.04883C71.9206 5.16602 71.9531 5.27344 71.9922 5.37109C72.0312 5.46875 72.0736 5.5599 72.1191 5.64453C72.1647 5.72917 72.207 5.80404 72.2461 5.86914C72.2982 5.96029 72.3796 6.0612 72.4902 6.17188C72.6009 6.28255 72.7214 6.40951 72.8516 6.55273C72.9818 6.68945 73.112 6.8457 73.2422 7.02148C73.3724 7.19727 73.4863 7.39583 73.584 7.61719C73.6816 7.83854 73.75 8.08594 73.7891 8.35938C73.8281 8.63281 73.8249 8.93555 73.7793 9.26758C73.7077 9.74935 73.5938 10.1497 73.4375 10.4688C73.2812 10.7943 73.1087 11.0547 72.9199 11.25C72.7376 11.4453 72.5521 11.5853 72.3633 11.6699C72.1745 11.7611 72.0182 11.8197 71.8945 11.8457C71.7969 11.8652 71.6797 11.8815 71.543 11.8945C71.4128 11.9141 71.2728 11.9108 71.123 11.8848C70.9798 11.8652 70.8333 11.8197 70.6836 11.748C70.5339 11.6829 70.4004 11.5788 70.2832 11.4355C70.1465 11.2728 70.0391 11.097 69.9609 10.9082C69.8893 10.7454 69.8372 10.5566 69.8047 10.3418C69.7656 10.1335 69.7819 9.91536 69.8535 9.6875C69.9056 9.62891 69.9609 9.57682 70.0195 9.53125C70.0781 9.48568 70.1367 9.44661 70.1953 9.41406C70.2604 9.375 70.3288 9.33919 70.4004 9.30664C70.485 9.2806 70.5697 9.25781 70.6543 9.23828C70.7259 9.22526 70.8008 9.21875 70.8789 9.21875C70.9635 9.21224 71.0417 9.22201 71.1133 9.24805C71.0156 9.35872 70.9473 9.46289 70.9082 9.56055C70.8822 9.61263 70.8626 9.6582 70.8496 9.69727C70.8236 9.82096 70.8138 9.96745 70.8203 10.1367C70.8333 10.3125 70.8691 10.4785 70.9277 10.6348C70.9928 10.7975 71.084 10.9342 71.2012 11.0449C71.3184 11.1621 71.4746 11.224 71.6699 11.2305C72.1452 11.2435 72.5488 10.8724 72.8809 10.1172C72.9915 9.88281 73.0469 9.64518 73.0469 9.4043C73.0534 9.16341 73.0241 8.93229 72.959 8.71094C72.9004 8.48958 72.819 8.28451 72.7148 8.0957C72.6172 7.90039 72.5163 7.73438 72.4121 7.59766C72.3079 7.46094 72.181 7.31445 72.0312 7.1582C71.888 6.99544 71.7448 6.81966 71.6016 6.63086C71.4583 6.44206 71.3281 6.23698 71.2109 6.01562C71.1003 5.79427 71.0254 5.55339 70.9863 5.29297C70.9342 4.92839 70.9668 4.59635 71.084 4.29688C71.2077 3.99089 71.3704 3.72396 71.5723 3.49609C71.7806 3.26823 72.0052 3.08268 72.2461 2.93945C72.4935 2.79622 72.7116 2.70508 72.9004 2.66602C73.9486 2.45768 74.6354 2.63346 74.9609 3.19336C75.0977 3.4082 75.1725 3.63607 75.1855 3.87695C75.1986 4.11784 75.1823 4.34245 75.1367 4.55078C75.0977 4.7526 75.0456 4.92513 74.9805 5.06836C74.9219 5.20508 74.8828 5.27995 74.8633 5.29297C74.8242 5.33203 74.7624 5.37435 74.6777 5.41992C74.5931 5.46549 74.4564 5.50781 74.2676 5.54688C74.2155 5.5599 74.1634 5.56641 74.1113 5.56641C74.0658 5.56641 74.0169 5.56315 73.9648 5.55664C73.9128 5.55013 73.8672 5.53711 73.8281 5.51758ZM74.2871 14.1699C74.2415 14.1504 74.196 14.1211 74.1504 14.082C74.1113 14.0495 74.0723 14.0072 74.0332 13.9551C73.9941 13.9095 73.9616 13.8509 73.9355 13.7793C74.1178 13.0827 74.2741 12.4772 74.4043 11.9629C74.528 11.4486 74.6354 11.0189 74.7266 10.6738C74.8242 10.2702 74.9089 9.93164 74.9805 9.6582C75.0456 9.39779 75.1107 9.13737 75.1758 8.87695C75.2279 8.64909 75.2832 8.40495 75.3418 8.14453C75.4069 7.88411 75.4655 7.63997 75.5176 7.41211C75.5827 7.1582 75.6217 6.95638 75.6348 6.80664C75.6478 6.65039 75.599 6.51693 75.4883 6.40625C75.5664 6.34115 75.6445 6.29232 75.7227 6.25977C75.8073 6.2207 75.8822 6.19466 75.9473 6.18164C76.0189 6.16211 76.0905 6.1556 76.1621 6.16211C76.3379 6.17513 76.4453 6.23047 76.4844 6.32812C76.5299 6.42578 76.5365 6.58203 76.5039 6.79688C76.4974 6.82943 76.4909 6.85872 76.4844 6.88477C76.4844 6.9043 76.4844 6.92708 76.4844 6.95312C76.5755 6.84896 76.6764 6.74805 76.7871 6.65039C76.8978 6.55273 77.0085 6.46484 77.1191 6.38672C77.2363 6.30859 77.3535 6.24674 77.4707 6.20117C77.5944 6.14909 77.7116 6.12305 77.8223 6.12305C77.972 6.12305 78.0924 6.16211 78.1836 6.24023C78.2812 6.31185 78.3561 6.40951 78.4082 6.5332C78.4603 6.6569 78.4928 6.79688 78.5059 6.95312C78.5189 7.10286 78.5221 7.2526 78.5156 7.40234C78.5091 7.5651 78.4798 7.73763 78.4277 7.91992C78.3822 8.10221 78.3171 8.28776 78.2324 8.47656C78.1478 8.66536 78.0501 8.85091 77.9395 9.0332C77.8288 9.21549 77.7116 9.38477 77.5879 9.54102C77.6139 9.54753 77.6302 9.55404 77.6367 9.56055C77.6432 9.56055 77.6465 9.5638 77.6465 9.57031C77.6465 9.57031 77.6497 9.57357 77.6562 9.58008C77.6693 9.58008 77.6921 9.58008 77.7246 9.58008C77.8743 9.58008 78.0273 9.54102 78.1836 9.46289C78.3398 9.38477 78.4928 9.28711 78.6426 9.16992C78.7923 9.04622 78.9355 8.91276 79.0723 8.76953C79.2155 8.6263 79.3424 8.48958 79.4531 8.35938C79.5703 8.22266 79.668 8.10221 79.7461 7.99805C79.8242 7.88737 79.8828 7.80924 79.9219 7.76367C79.974 7.69857 80.0228 7.65625 80.0684 7.63672C80.1139 7.61068 80.1497 7.60742 80.1758 7.62695C80.2018 7.64648 80.2148 7.68555 80.2148 7.74414C80.2148 7.79622 80.1953 7.86458 80.1562 7.94922C80.1302 8.00781 80.0749 8.10221 79.9902 8.23242C79.9056 8.36263 79.8014 8.50911 79.6777 8.67188C79.554 8.83464 79.4108 9.00391 79.248 9.17969C79.0918 9.35547 78.9258 9.51497 78.75 9.6582C78.5742 9.80143 78.3919 9.91862 78.2031 10.0098C78.0208 10.1074 77.8418 10.1562 77.666 10.1562C77.5814 10.1562 77.513 10.153 77.4609 10.1465C77.4089 10.14 77.3633 10.127 77.3242 10.1074C77.2917 10.0944 77.2591 10.0781 77.2266 10.0586C77.194 10.0456 77.1549 10.0293 77.1094 10.0098C76.9922 10.1009 76.8717 10.1693 76.748 10.2148C76.6243 10.2669 76.5039 10.293 76.3867 10.293C76.276 10.293 76.1784 10.2734 76.0938 10.2344C76.0156 10.2018 75.9505 10.153 75.8984 10.0879C75.8464 10.0293 75.804 9.96419 75.7715 9.89258C75.7389 9.81445 75.7129 9.73958 75.6934 9.66797C75.6868 9.69401 75.6803 9.7168 75.6738 9.73633C75.6738 9.75586 75.6706 9.7819 75.6641 9.81445C75.5859 10.127 75.5046 10.4883 75.4199 10.8984C75.3483 11.25 75.2604 11.6764 75.1562 12.1777C75.0586 12.6855 74.9544 13.2617 74.8438 13.9062C74.8047 14.082 74.7363 14.1829 74.6387 14.209C74.5345 14.235 74.4173 14.222 74.2871 14.1699ZM76.0742 8.11523C76.0417 8.22591 76.0059 8.35612 75.9668 8.50586C75.9342 8.64909 75.8952 8.82161 75.8496 9.02344C75.9017 8.98438 75.9603 8.95508 76.0254 8.93555C76.0905 8.91602 76.1556 8.90625 76.2207 8.90625C76.2923 8.90625 76.3835 8.94531 76.4941 9.02344C76.6048 9.09505 76.7383 9.17318 76.8945 9.25781C76.9922 9.14062 77.0931 9.01042 77.1973 8.86719C77.3079 8.71745 77.4056 8.56445 77.4902 8.4082C77.5814 8.25195 77.6562 8.09245 77.7148 7.92969C77.7799 7.76693 77.8158 7.61068 77.8223 7.46094C77.8353 7.26562 77.8125 7.11263 77.7539 7.00195C77.6953 6.89128 77.5977 6.83594 77.4609 6.83594C77.2591 6.83594 77.0378 6.95638 76.7969 7.19727C76.5625 7.43164 76.3216 7.73763 76.0742 8.11523ZM84.5117 8.05664C84.4206 8.18685 84.3034 8.34961 84.1602 8.54492C84.0169 8.73372 83.8672 8.92578 83.7109 9.12109C83.5612 9.3099 83.4115 9.48568 83.2617 9.64844C83.1185 9.80469 82.998 9.91536 82.9004 9.98047C82.8353 10.0195 82.7604 10.0521 82.6758 10.0781C82.5911 10.1042 82.5033 10.1204 82.4121 10.127C82.3275 10.1335 82.2461 10.127 82.168 10.1074C82.0898 10.0944 82.0215 10.0684 81.9629 10.0293C81.9043 9.98372 81.8555 9.91862 81.8164 9.83398C81.7839 9.76237 81.7513 9.66797 81.7188 9.55078C81.6927 9.43359 81.6829 9.28711 81.6895 9.11133C81.5332 9.37174 81.3607 9.57357 81.1719 9.7168C80.9831 9.85352 80.804 9.95443 80.6348 10.0195C80.4395 10.0911 80.2441 10.1335 80.0488 10.1465C79.9577 10.1465 79.86 10.1139 79.7559 10.0488C79.6517 9.99023 79.5638 9.89583 79.4922 9.76562C79.4206 9.62891 79.375 9.45638 79.3555 9.24805C79.3359 9.0332 79.362 8.7793 79.4336 8.48633C79.5247 8.08919 79.668 7.72786 79.8633 7.40234C80.0651 7.07682 80.2832 6.80013 80.5176 6.57227C80.752 6.33789 80.9831 6.16211 81.2109 6.04492C81.4388 5.92773 81.6276 5.87565 81.7773 5.88867C81.9531 5.92122 82.0964 5.97331 82.207 6.04492C82.2982 6.11003 82.3568 6.20768 82.3828 6.33789C82.4154 6.46159 82.3633 6.6276 82.2266 6.83594C82.3177 6.81641 82.3926 6.80339 82.4512 6.79688C82.5163 6.79036 82.5651 6.78711 82.5977 6.78711C82.6367 6.78711 82.6628 6.79036 82.6758 6.79688C82.6823 6.8099 82.6855 6.83919 82.6855 6.88477C82.6855 6.92383 82.6758 6.9987 82.6562 7.10938C82.6367 7.22005 82.6074 7.36979 82.5684 7.55859C82.5293 7.7474 82.4772 7.99154 82.4121 8.29102C82.3991 8.34961 82.3861 8.40495 82.373 8.45703C82.3665 8.5026 82.3568 8.55143 82.3438 8.60352C82.3372 8.64909 82.3275 8.70443 82.3145 8.76953C82.3014 8.83464 82.2852 8.91602 82.2656 9.01367C82.2591 9.07227 82.2559 9.13737 82.2559 9.20898C82.2624 9.27409 82.2754 9.33594 82.2949 9.39453C82.3145 9.45312 82.3438 9.50195 82.3828 9.54102C82.4284 9.57357 82.4902 9.58984 82.5684 9.58984C82.6335 9.58984 82.7181 9.55078 82.8223 9.47266C82.9264 9.38802 83.0371 9.28385 83.1543 9.16016C83.2715 9.02995 83.3919 8.88997 83.5156 8.74023C83.6458 8.58398 83.7663 8.43424 83.877 8.29102C83.9876 8.14779 84.0853 8.02083 84.1699 7.91016C84.2611 7.79948 84.3262 7.7181 84.3652 7.66602C84.4173 7.60742 84.4694 7.57487 84.5215 7.56836C84.5736 7.55534 84.6126 7.56836 84.6387 7.60742C84.6647 7.64648 84.668 7.70508 84.6484 7.7832C84.6354 7.86133 84.5898 7.95247 84.5117 8.05664ZM81.6504 8.48633C81.6829 8.35612 81.722 8.20312 81.7676 8.02734C81.8132 7.85156 81.8522 7.68229 81.8848 7.51953C81.9173 7.35677 81.9401 7.22331 81.9531 7.11914C81.9727 7.00846 81.9694 6.95638 81.9434 6.96289C81.9108 6.9694 81.875 6.97917 81.8359 6.99219C81.8034 7.00521 81.7611 7.01497 81.709 7.02148C81.6569 7.02799 81.6048 7.03776 81.5527 7.05078C81.6048 6.94661 81.6341 6.86198 81.6406 6.79688C81.6536 6.72526 81.6569 6.66992 81.6504 6.63086C81.6439 6.58529 81.6309 6.54948 81.6113 6.52344C81.5397 6.46484 81.4128 6.51367 81.2305 6.66992C81.0547 6.81966 80.8496 7.09961 80.6152 7.50977C80.5176 7.67904 80.4395 7.86133 80.3809 8.05664C80.3223 8.24544 80.2799 8.42448 80.2539 8.59375C80.2344 8.76302 80.2311 8.91276 80.2441 9.04297C80.2572 9.16667 80.2832 9.24805 80.3223 9.28711C80.3939 9.35872 80.4753 9.39453 80.5664 9.39453C80.6576 9.38802 80.7487 9.36198 80.8398 9.31641C80.9375 9.26432 81.0319 9.19922 81.123 9.12109C81.2207 9.04297 81.3053 8.96159 81.377 8.87695C81.4551 8.79232 81.5169 8.71419 81.5625 8.64258C81.6146 8.57096 81.6439 8.51888 81.6504 8.48633Z" fill="white"/>
<defs>
<clipPath id="clip0_1_8">
<rect width="8" height="8" fill="white" transform="translate(4 4)"/>
</clipPath>
</defs>
</svg>
